<mxfile host="app.diagrams.net" modified="2023-11-29T05:28:48.716Z" agent="Mozilla/5.0 (Macintosh; Intel Mac OS X 10_15_7) AppleWebKit/537.36 (KHTML, like Gecko) Chrome/119.0.0.0 Safari/537.36" version="22.1.4" etag="pjZFfKK8fruFp4fbVQAA" type="github">
  <diagram name="第 1 页" id="nMvRCQ6jvFBE-kTMUxv-">
    <mxGraphModel>
      <root>
        <mxCell id="0" />
        <mxCell id="1" parent="0" />
      </root>
    </mxGraphModel>
  </diagram>
</mxfile>
